<svg width="42" height="42" viewBox="0 0 42 42" fill="none" xmlns="http://www.w3.org/2000/svg">
<path fill-rule="evenodd" clip-rule="evenodd" d="M10.9375 9.625C10.9375 6.48389 13.4839 3.9375 16.625 3.9375C19.7661 3.9375 22.3125 6.48387 22.3125 9.625C22.3125 12.7661 19.7661 15.3125 16.625 15.3125H5.25C4.52513 15.3125 3.9375 14.7249 3.9375 14C3.9375 13.2751 4.52513 12.6875 5.25 12.6875H16.625C18.3164 12.6875 19.6875 11.3164 19.6875 9.625C19.6875 7.93362 18.3164 6.5625 16.625 6.5625C14.9336 6.5625 13.5625 7.93362 13.5625 9.625V10.25C13.5625 10.9749 12.9749 11.5625 12.25 11.5625C11.5251 11.5625 10.9375 10.9749 10.9375 10.25V9.625ZM24.9375 13.125C24.9375 9.01738 28.2674 5.6875 32.375 5.6875C36.4826 5.6875 39.8125 9.01738 39.8125 13.125C39.8125 17.2326 36.4826 20.5625 32.375 20.5625H3.5C2.77513 20.5625 2.1875 19.9748 2.1875 19.25C2.1875 18.5252 2.77513 17.9375 3.5 17.9375H32.375C35.0329 17.9375 37.1875 15.7829 37.1875 13.125C37.1875 10.4671 35.0329 8.3125 32.375 8.3125C29.7171 8.3125 27.5625 10.4671 27.5625 13.125V14C27.5625 14.7249 26.9749 15.3125 26.25 15.3125C25.5252 15.3125 24.9375 14.7249 24.9375 14V13.125ZM5.6875 24.5C5.6875 23.7752 6.27514 23.1875 7 23.1875H32.375C36.4826 23.1875 39.8125 26.5174 39.8125 30.625C39.8125 34.7326 36.4826 38.0625 32.375 38.0625C28.2674 38.0625 24.9375 34.7326 24.9375 30.625V29.75C24.9375 29.0252 25.5252 28.4375 26.25 28.4375C26.9749 28.4375 27.5625 29.0252 27.5625 29.75V30.625C27.5625 33.2829 29.7171 35.4375 32.375 35.4375C35.0329 35.4375 37.1875 33.2829 37.1875 30.625C37.1875 27.9671 35.0329 25.8125 32.375 25.8125H7C6.27514 25.8125 5.6875 25.2248 5.6875 24.5Z" fill="white"/>
</svg>
