<svg width="30" height="30" viewBox="0 0 30 30" fill="none" xmlns="http://www.w3.org/2000/svg">
<path d="M10.4062 22.1875V6.61458L24.7812 4.21875V19.7917" stroke="#505050" stroke-width="2" stroke-linecap="round" stroke-linejoin="round"/>
<path d="M10.4062 11.4062L24.7812 9.01041" stroke="#505050" stroke-width="2" stroke-linecap="round" stroke-linejoin="round"/>
<path d="M3.21875 22.1875C3.21875 23.1406 3.59738 24.0547 4.27133 24.7287C4.94529 25.4026 5.85938 25.7812 6.8125 25.7812C7.76562 25.7812 8.67971 25.4026 9.35366 24.7287C10.0276 24.0547 10.4062 23.1406 10.4062 22.1875C10.4062 21.2344 10.0276 20.3203 9.35366 19.6463C8.67971 18.9724 7.76562 18.5938 6.8125 18.5938C5.85938 18.5938 4.94529 18.9724 4.27133 19.6463C3.59738 20.3203 3.21875 21.2344 3.21875 22.1875Z" stroke="#505050" stroke-width="2" stroke-linecap="round" stroke-linejoin="round"/>
<path d="M17.5938 19.7917C17.5938 20.7448 17.9724 21.6589 18.6463 22.3328C19.3203 23.0068 20.2344 23.3854 21.1875 23.3854C22.1406 23.3854 23.0547 23.0068 23.7287 22.3328C24.4026 21.6589 24.7812 20.7448 24.7812 19.7917C24.7812 18.8385 24.4026 17.9245 23.7287 17.2505C23.0547 16.5765 22.1406 16.1979 21.1875 16.1979C20.2344 16.1979 19.3203 16.5765 18.6463 17.2505C17.9724 17.9245 17.5938 18.8385 17.5938 19.7917Z" stroke="#505050" stroke-width="2" stroke-linecap="round" stroke-linejoin="round"/>
</svg>
