<svg width="30" height="30" viewBox="0 0 30 30" fill="none" xmlns="http://www.w3.org/2000/svg">
<path fill-rule="evenodd" clip-rule="evenodd" d="M18.0088 11.5108L25.0206 9.63204C25.5238 9.49719 25.8225 8.97989 25.6876 8.47663L24.7825 5.09836C24.3779 3.58857 22.8261 2.69259 21.3163 3.09714L19.6496 3.5437L18.0088 11.5108ZM17.101 4.2266L11.8356 5.63743L10.1949 13.6046L15.4602 12.1937L17.101 4.2266ZM4.09836 7.71064L9.28704 6.32033L7.64624 14.2875L7.55849 14.311H25.8208C26.4721 14.311 27 14.8389 27 15.4902V24.934C27 26.6274 25.6274 28 23.934 28H6.00963C4.31632 28 2.94362 26.6274 2.94362 24.934V15.4902C2.94362 15.2521 3.01421 15.0304 3.13561 14.845C3.07656 14.759 3.03088 14.6616 3.00234 14.5551L2.09714 11.1769C1.69259 9.66707 2.58857 8.11518 4.09836 7.71064ZM5.30209 16.6694V24.934C5.30209 25.3247 5.61888 25.6415 6.00963 25.6415H23.934C24.3247 25.6415 24.6415 25.3247 24.6415 24.934V16.6694H5.30209ZM9.17304 20.8158C8.39152 20.8158 7.75796 21.4493 7.75796 22.2308C7.75796 23.0123 8.39152 23.6459 9.17304 23.6459H11.5867C12.3682 23.6459 13.0017 23.0123 13.0017 22.2308C13.0017 21.4493 12.3682 20.8158 11.5867 20.8158H9.17304Z" fill="#505050"/>
</svg>
