<svg width="30" height="30" viewBox="0 0 30 30" fill="none" xmlns="http://www.w3.org/2000/svg">
<path fill-rule="evenodd" clip-rule="evenodd" d="M12.9168 2.42824C14.164 1.85725 15.5992 1.85725 16.8463 2.42824C21.2923 4.46376 24.6047 7.37565 26.1997 8.9464C27.0597 9.79332 27.5193 10.9227 27.5837 12.0875C27.6632 13.5229 27.7632 15.8504 27.7632 18.476C27.7632 20.3288 27.7134 22.0328 27.6562 23.3792C27.5646 25.5368 25.8416 27.2294 23.6901 27.3032C21.6993 27.3715 18.7399 27.44 14.8816 27.44C11.0232 27.44 8.06385 27.3715 6.07305 27.3032C3.92156 27.2294 2.19859 25.5368 2.10696 23.3792C2.04979 22.0328 2 20.3288 2 18.476C2 15.8504 2.09998 13.5229 2.17942 12.0875C2.24389 10.9227 2.70343 9.79332 3.56349 8.9464C5.15852 7.37565 8.47085 4.46376 12.9168 2.42824ZM10.3015 21.4286C9.66906 21.4286 9.15643 21.9412 9.15643 22.5736C9.15643 23.206 9.66906 23.7187 10.3015 23.7187H19.4617C20.0941 23.7187 20.6067 23.206 20.6067 22.5736C20.6067 21.9412 20.0941 21.4286 19.4617 21.4286H10.3015Z" fill="black"/>
</svg>
