<svg width="42" height="42" viewBox="0 0 42 42" fill="none" xmlns="http://www.w3.org/2000/svg">
<path d="M21 42C19.8667 42 18.9083 41.6069 18.125 40.8207C17.3417 40.0345 16.95 39.0726 16.95 37.9351H25.05C25.05 39.0726 24.6583 40.0345 23.875 40.8207C23.0917 41.6069 22.1333 42 21 42ZM12.9 34.8237V31.8127H29.1V34.8237H12.9ZM13.15 28.7515C10.95 27.313 9.2083 25.5147 7.925 23.3568C6.64167 21.1989 6 18.765 6 16.0551C6 11.9735 7.4833 8.44394 10.45 5.46634C13.4167 2.48878 16.9333 1 21 1C25.0667 1 28.5833 2.48878 31.55 5.46634C34.5167 8.44394 36 11.9735 36 16.0551C36 18.765 35.3667 21.1989 34.1 23.3568C32.8333 25.5147 31.0833 27.313 28.85 28.7515H13.15ZM14.25 25.7405H27.8C29.4 24.6699 30.6667 23.2815 31.6 21.5753C32.5333 19.869 33 18.029 33 16.0551C33 12.743 31.825 9.9076 29.475 7.54896C27.125 5.19033 24.3 4.01102 21 4.01102C17.7 4.01102 14.875 5.19033 12.525 7.54896C10.175 9.9076 9 12.743 9 16.0551C9 18.029 9.4667 19.869 10.4 21.5753C11.3333 23.2815 12.6167 24.6699 14.25 25.7405Z" fill="white"/>
</svg>
