<svg width="30" height="30" viewBox="0 0 30 30" fill="none" xmlns="http://www.w3.org/2000/svg">
<path d="M3.021 15.3958V17.7917C3.021 21.1799 3.021 22.8739 4.07358 23.9266C5.12617 24.9792 6.82027 24.9792 10.2085 24.9792H19.7918C23.18 24.9792 24.8741 24.9792 25.9267 23.9266C26.9793 22.8739 26.9793 21.1799 26.9793 17.7917V13C26.9793 9.61178 26.9793 7.91767 25.9267 6.86509C24.8741 5.8125 23.18 5.8125 19.7918 5.8125H10.2085C6.82027 5.8125 5.12617 5.8125 4.07358 6.86509C3.30536 7.63331 3.09782 8.74326 3.04174 10.6042" stroke="#505050" stroke-width="2" stroke-linecap="round"/>
<path d="M11.4062 1.02084L15 5.21355L18.5938 1.02084" stroke="#505050" stroke-width="2" stroke-linecap="round"/>
<path d="M19.7915 5.8125V10.6042M19.7915 24.9792V15.3958" stroke="#505050" stroke-width="2" stroke-linecap="round"/>
<path d="M24.5833 17.7917C24.5833 17.1301 24.047 16.5938 23.3854 16.5938C22.7238 16.5938 22.1875 17.1301 22.1875 17.7917C22.1875 18.4533 22.7238 18.9896 23.3854 18.9896C24.047 18.9896 24.5833 18.4533 24.5833 17.7917Z" fill="#505050"/>
<path d="M24.5833 13C24.5833 12.3384 24.047 11.8021 23.3854 11.8021C22.7238 11.8021 22.1875 12.3384 22.1875 13C22.1875 13.6616 22.7238 14.1979 23.3854 14.1979C24.047 14.1979 24.5833 13.6616 24.5833 13Z" fill="#505050"/>
</svg>
