<svg width="30" height="30" viewBox="0 0 30 30" fill="none" xmlns="http://www.w3.org/2000/svg">
<path d="M21.8283 9.84897C22.1789 9.51135 22.6066 9.26428 23.0742 9.12917C23.5418 8.99405 24.0353 8.97495 24.512 9.07353C24.9887 9.17211 25.4342 9.38539 25.8098 9.69491C26.1855 10.0044 26.4801 10.4009 26.668 10.8499C26.856 11.2989 26.9317 11.7869 26.8885 12.2718C26.8454 12.7566 26.6847 13.2236 26.4204 13.6324C26.1561 14.0411 25.7961 14.3793 25.3717 14.6176C24.9473 14.8559 24.4711 14.9872 23.9845 15H3.021" stroke="#505050" stroke-width="1.5" stroke-linecap="round" stroke-linejoin="round"/>
<path d="M12.1252 6.13541C12.4027 5.85235 12.7461 5.64258 13.1247 5.5249C13.5032 5.40722 13.9051 5.38531 14.2942 5.46114C14.6833 5.53696 15.0475 5.70816 15.3541 5.95937C15.6608 6.21058 15.9003 6.53396 16.0513 6.90052C16.2022 7.26708 16.2598 7.66537 16.219 8.05968C16.1781 8.45399 16.04 8.832 15.8172 9.15982C15.5943 9.48764 15.2935 9.75504 14.9419 9.93803C14.5902 10.121 14.1986 10.2139 13.8022 10.2083H3.021" stroke="#505050" stroke-width="1.5" stroke-linecap="round" stroke-linejoin="round"/>
<path d="M15.7189 23.8646C15.9964 24.1477 16.3399 24.3574 16.7184 24.4751C17.097 24.5928 17.4988 24.6147 17.8879 24.5389C18.277 24.463 18.6412 24.2919 18.9479 24.0406C19.2546 23.7894 19.4941 23.4661 19.645 23.0995C19.796 22.7329 19.8536 22.3346 19.8127 21.9403C19.7719 21.546 19.6338 21.168 19.4109 20.8402C19.188 20.5124 18.8873 20.245 18.5356 20.062C18.1839 19.879 17.7924 19.7861 17.396 19.7917H3.021" stroke="#505050" stroke-width="1.5" stroke-linecap="round" stroke-linejoin="round"/>
</svg>
