<?xml version="1.0" encoding="UTF-8"?>
<svg id="Camada_1" xmlns="http://www.w3.org/2000/svg" version="1.1" viewBox="0 0 2025 297">
  <!-- Generator: Adobe Illustrator 29.7.1, SVG Export Plug-In . SVG Version: 2.1.1 Build 8)  -->
  <defs>
    <style>
      .st0 {
        fill: #fff;
      }
    </style>
  </defs>
  <polygon class="st0" points="1286.62 211.99 1286.63 79.75 1344.57 128.71 1404.27 79.74 1404.59 211.99 1286.62 211.99"/>
  <path class="st0" d="M912.23,82.85v37.25h23.9c.19,0,.48-.79.93-.62v39.74h21.11v52.78h-106.79V82.85h60.85Z"/>
  <path class="st0" d="M1035.19,127.52c.18.26,4.19,1.9,5.51,2.87,28.13,20.81,26.76,65.95-5.61,81.83-28.35,13.91-61.66-.51-69.19-31.24l19.55-20.92c.18-1.02-6.32-6.7-7.39-8-17.22-20.96-11.98-53.56,11.99-66.84,21.75-12.05,56.48-5.23,64.89,20.4.13,1.37-17,17.15-19.18,19.72-.49.46-.88,1.72-.57,2.18Z"/>
  <path class="st0" d="M1464.2,211.99h-45.32l.62-129.14h68.61c18.03,0,33.48,21.41,33.8,38.28.64,34.02-24.74,41.27-53.69,40.6-.96-.02-4.01-1.15-4.01.28v49.98Z"/>
  <path class="st0" d="M1170.52,82.85v43.46h-26.08v85.68h-52.15v-82.27c0-.92-.18-2.98-.93-3.41h-27.01c-.17-.45.62-.74.62-.93v-42.53h105.55Z"/>
  <polygon class="st0" points="526.66 82.85 463.02 216.34 401.24 82.85 526.66 82.85"/>
  <path class="st0" d="M807.92,213.23h-119.52c-.09,0-1.19-.87-.69-1.29,18.98-40.76,37.13-81.94,56.15-122.69,1.26-2.69,2.64-5.95,4.45-8.27l59.61,132.25Z"/>
  <polygon class="st0" points="1277.31 211.99 1158.1 211.99 1217.71 80.99 1277.31 211.99"/>
  <path class="st0" d="M1505.49,211.99c-.18.02-.69.93-.93.62l.29-1.87c9.05-19.41,18.34-39.57,27.05-58.56,10.89-23.72,21.86-47.41,32.57-71.2l6.62,13.24c12.46,28.94,25.9,57.41,38.57,85.63,4.86,10.81,10.04,21.74,14.09,32.76-.23.3-.79-.62-.93-.62h-117.35Z"/>
  <path class="st0" d="M636.56,82.85v72.02h43.46v58.36h-79.78c-.07,0-.93-.87-.93-.93V82.85h37.25Z"/>
  <path class="st0" d="M583.78,82.85v130.07c.02.23-1.32.32-1.55.32h-44.7l-.31-130.39h46.57Z"/>
</svg>